<?xml version="1.0" standalone="no"?>
<!DOCTYPE svg PUBLIC "-//W3C//DTD SVG 20010904//EN"
 "http://www.w3.org/TR/2001/REC-SVG-20010904/DTD/svg10.dtd">
<svg version="1.0" xmlns="http://www.w3.org/2000/svg"
 width="300.000000pt" height="189.000000pt" viewBox="0 0 300.000000 189.000000"
 preserveAspectRatio="xMidYMid meet">
<metadata>
Created by potrace 1.10, written by Peter Selinger 2001-2011
</metadata>
<g transform="translate(0.000000,189.000000) scale(0.100000,-0.100000)"
fill="#000000" stroke="none">
<path d="M150 1013 l0 -723 1350 0 1350 0 0 723 0 722 -1350 0 -1350 0 0 -722z
m2649 673 c8 -10 11 -190 11 -676 0 -364 -3 -666 -6 -671 -6 -10 -2573 -13
-2598 -3 -14 6 -16 75 -16 679 0 529 3 674 13 678 6 3 591 5 1298 6 1087 1
1288 -1 1298 -13z"/>
<path d="M1395 1501 c-123 -16 -223 -106 -197 -179 14 -42 -10 -91 -62 -126
-44 -30 -76 -71 -76 -98 0 -8 11 -25 25 -38 14 -13 25 -31 25 -40 0 -9 5 -21
11 -27 8 -8 8 -17 -1 -32 -6 -12 -9 -32 -7 -44 4 -19 4 -19 6 4 1 30 25 56 36
39 3 -5 13 -10 22 -10 9 0 27 -10 40 -22 13 -12 23 -16 23 -10 0 7 0 15 0 20
0 4 -4 7 -9 7 -5 0 -13 3 -17 8 -4 4 -15 7 -24 7 -27 0 -70 39 -70 64 0 15 9
27 25 34 42 19 29 32 -25 25 -31 -4 -50 -2 -50 4 0 14 84 91 115 105 16 7 25
19 25 33 0 37 46 68 118 80 28 4 42 3 42 -4 0 -6 -10 -12 -22 -12 -21 -1 -21
-2 -3 -6 11 -3 24 -9 29 -14 5 -4 18 -3 28 2 19 10 19 11 2 23 -11 8 -14 18
-9 26 7 11 10 9 15 -6 6 -17 9 -15 23 13 19 36 45 47 87 38 35 -8 71 -49 63
-73 -3 -9 -22 -32 -42 -49 -31 -28 -33 -33 -15 -33 11 0 25 5 30 10 7 7 16 4
28 -9 18 -20 47 -93 40 -100 -2 -2 -19 8 -38 23 -47 35 -64 33 -32 -5 27 -32
35 -89 16 -119 -7 -12 -11 -8 -16 18 -10 50 -24 49 -24 -2 0 -44 -3 -48 -95
-139 -91 -88 -95 -95 -95 -135 0 -24 4 -41 9 -38 4 3 13 -12 20 -34 6 -21 16
-42 22 -46 8 -4 8 0 0 14 -17 32 -13 81 10 129 20 42 58 79 149 146 25 18 55
51 68 74 40 72 50 193 16 193 -7 0 -21 11 -29 24 -14 21 -14 31 -4 65 l12 40
66 -6 c55 -5 64 -3 53 8 -7 7 -41 15 -78 17 -43 3 -67 9 -71 18 -3 8 -14 14
-24 14 -10 0 -19 5 -19 10 0 6 6 10 14 10 8 0 17 4 21 9 7 13 -60 2 -104 -15
-48 -20 -50 -10 -4 20 106 70 223 59 323 -31 52 -46 65 -43 29 8 -24 35 -87
72 -149 90 -25 7 -54 18 -65 25 -22 13 -131 16 -210 5z m5 -32 c-12 -9 -11 -9
5 -3 34 13 205 17 205 5 0 -7 -22 -11 -57 -11 -50 0 -65 -5 -112 -37 -38 -27
-50 -39 -38 -41 30 -6 -49 -52 -88 -52 -19 0 -37 -5 -40 -10 -8 -13 -25 -3
-21 13 1 7 1 9 -1 4 -3 -4 -9 -5 -14 -1 -5 3 -9 -7 -9 -21 0 -15 -4 -24 -10
-20 -19 12 -10 63 17 96 26 31 133 89 163 89 13 0 13 -2 0 -11z"/>
<path d="M1764 1328 c21 -17 52 -52 67 -77 22 -35 29 -40 29 -23 0 31 -29 86
-53 101 -11 8 -34 17 -51 22 l-30 9 38 -32z"/>
<path d="M1457 1321 c-30 -29 -26 -52 5 -24 13 12 22 13 29 6 19 -19 -1 -35
-37 -31 -27 3 -39 -1 -57 -20 l-22 -25 27 7 c14 3 33 9 42 12 12 5 15 2 10
-10 -3 -8 4 -31 15 -50 12 -18 28 -51 36 -72 l15 -39 -7 40 c-3 22 -13 57 -21
79 -15 38 -15 38 16 63 37 28 42 67 13 83 -27 14 -32 13 -64 -19z"/>
<path d="M1657 1291 c19 -16 20 -23 13 -56 -6 -27 -4 -56 8 -100 22 -84 8
-129 -61 -203 -44 -47 -48 -52 -22 -39 38 19 77 62 101 107 23 46 24 172 2
218 -14 28 -14 32 -2 32 72 0 162 -126 165 -229 0 -26 0 -26 11 -4 10 21 6 55
-17 146 -6 24 -40 66 -75 92 -16 12 -27 25 -23 29 4 4 -1 4 -11 0 -12 -5 -17
-4 -13 3 3 5 -3 9 -16 8 -12 -1 -35 2 -52 6 l-30 8 22 -18z"/>
<path d="M1270 1223 c-8 -2 -24 -16 -34 -30 -18 -24 -18 -26 -2 -20 10 4 31 7
47 7 19 0 32 6 36 18 4 9 11 20 17 24 12 8 -38 9 -64 1z"/>
<path d="M1395 1100 c-11 -5 -30 -6 -43 -3 -15 4 -22 1 -20 -7 3 -15 -37 -40
-64 -40 -22 0 -22 -9 -2 -35 15 -20 22 -16 36 16 2 4 13 10 26 13 17 6 22 3
23 -11 0 -14 3 -12 12 7 13 28 26 40 44 40 21 0 1 -36 -55 -99 -28 -33 -61
-75 -73 -95 -20 -34 -20 -38 -5 -88 9 -29 20 -60 26 -68 14 -22 12 -8 -6 35
-25 60 -12 97 56 165 62 61 80 92 80 140 0 34 -8 40 -35 30z"/>
<path d="M1770 1084 c1 -10 5 -39 9 -63 19 -95 -24 -179 -142 -282 -77 -67
-120 -119 -131 -159 -5 -16 3 -10 22 20 16 25 53 68 83 95 120 112 141 137
164 190 14 30 25 67 25 81 0 22 4 25 21 21 l20 -5 -21 35 c-11 19 -18 38 -15
42 2 5 -4 16 -15 26 -19 17 -20 17 -20 -1z"/>
<path d="M1482 1027 c-1 -21 -7 -48 -13 -60 -11 -20 -10 -21 5 -6 13 12 16 28
13 60 -3 44 -4 44 -5 6z"/>
<path d="M1731 940 c-1 -35 -20 -61 -121 -165 -86 -89 -117 -131 -106 -143 3
-3 6 0 6 7 0 7 49 64 110 126 106 110 127 143 117 182 -3 13 -5 11 -6 -7z"/>
<path d="M1395 893 c-32 -27 -61 -55 -63 -63 -3 -8 15 4 39 27 24 23 55 51 69
62 14 11 23 20 20 21 -4 0 -32 -21 -65 -47z"/>
<path d="M1535 807 c-36 -26 -48 -40 -79 -92 -33 -53 -43 -95 -24 -95 8 0 21
-15 30 -32 l15 -33 -5 56 c-5 64 16 114 75 179 39 44 34 51 -12 17z"/>
<path d="M1463 782 c-22 -31 -46 -72 -40 -72 7 0 69 91 65 95 -2 3 -13 -8 -25
-23z"/>
</g>
</svg>
